# xmcd CD database file
#
# Track frame offsets:
#	150
#	23970
#	51540
#
# Disc length: 1393 seconds
#
# Revision: 0
# Processed by: cddbd v1.5.1PL0 Copyright (c) Steve Scherf et al.
# Submitted via: CDex 1.51
#
DISCID=24056f03
DTITLE=PLASTIC - JUST A ROCK'N' ROLLER
DYEAR=2002
DGENRE=JPop
TTITLE0=JUST A ROCK'N' ROLLER
TTITLE1=ROCKMAN!
TTITLE2=CRAZY FOR THE BERRY
EXTD=YEAR: 2002
EXTT0=
EXTT1=
EXTT2=
PLAYORDER=
